<svg width="695" height="144" viewBox="0 0 695 144" fill="none" xmlns="http://www.w3.org/2000/svg">
<path d="M447.872 141.61C437.734 138.109 432.135 130.773 432.17 121.038C432.204 111.186 436.587 105.041 446.464 100.991C450.105 99.4977 453.674 99.1064 466.745 98.7669L482.607 98.3549L482.025 94.5772C481 90.5 480.273 87.3142 476.5 84.5C474.317 82.872 467.491 82.2995 463.355 82.5756C457 83 454 83.5 447.37 85.634C443.955 87.3161 441.044 88.5497 440.902 88.3753C440.759 88.201 439.133 85.3277 437.288 81.9905L433.932 75.9227L437.839 73.6436C455.58 63.2924 483.546 64.8702 493.756 76.7984C499.725 83.772 500.094 85.906 500.469 115.7L500.807 142.427H492.064H483.321V138.729V135.031L479.895 137.735C478.01 139.222 474.5 141.092 472.096 141.89C466.076 143.887 454.063 143.749 447.872 141.61ZM474.337 127.669C479.717 124.699 482.407 120.435 482.407 114.879V110.446L471.671 110.449C459.463 110.457 455.289 111.325 452.325 114.479C447.981 119.104 450.409 127.016 456.907 129.408C461.39 131.059 469.698 130.23 474.337 127.669ZM333.464 93.5476V44.5426L363.846 44.8411C392.828 45.1261 394.464 45.2343 399.327 47.1888C405.643 49.7273 411.477 54.6225 414.119 59.6012C417.245 65.4897 416.95 75.5255 413.466 81.8943C412.021 84.5349 409.409 87.7862 407.661 89.1193L404.483 91.5432L408.037 93.3301C416.534 97.603 421.161 105.202 421.176 114.908C421.187 123.52 419.654 127.568 414.351 132.904C410.981 136.295 408.143 138.127 403.812 139.707C398.078 141.799 396.831 141.881 365.674 142.211L333.464 142.553V93.5476ZM392.518 126.453C395.026 125.708 398.081 124.03 399.308 122.724C401.225 120.684 401.539 119.469 401.539 114.101C401.539 108.779 401.217 107.508 399.368 105.54C395.331 101.243 390.611 100.394 370.765 100.394H352.653V114.101V127.807H370.305C383.24 127.807 389.176 127.445 392.518 126.453ZM385.629 84.7575C395.244 82.6953 399.931 74.4002 395.878 66.6159C392.699 60.51 390.055 59.7692 370.243 59.4332L352.653 59.135V72.4544V85.7739H366.771C374.536 85.7739 383.022 85.3165 385.629 84.7575ZM520.785 104.963V67.4985H529.923H539.061V71.5487V75.5988L543.677 72.4923C551.285 67.3725 561.386 65.5259 571.211 67.4587C582.143 69.6095 589.391 75.271 593.06 84.5267C595.076 89.6114 595.202 91.2307 595.523 116.156L595.861 142.427H586.717H577.573L577.278 118.441L576.982 94.4546L574.501 90.2331C570.699 83.7664 563.794 81.2176 555.015 83.0401C548.845 84.3211 544.136 88.1205 541.436 93.9977C539.725 97.7197 539.515 100.211 539.221 120.268L538.895 142.427H529.841H520.786L520.785 104.963ZM615.817 90.3427V38.2581H624.943H634.068L634.309 69.2189L634.549 100.18L652.129 83.8391L669.709 67.4985H680.227C686.012 67.4985 690.746 67.8024 690.746 68.174C690.746 68.5456 683.913 75.691 675.562 84.0528L660.379 99.256L667.167 107.82C670.901 112.531 678.565 122.244 684.199 129.406L694.442 142.427L683.227 142.412L672.013 142.397L660.135 127.666C653.601 119.563 647.985 112.515 647.655 112.003C647.314 111.473 644.262 113.554 640.574 116.832L634.092 122.592V132.511V142.429H624.955H615.817L615.817 90.3427Z" fill="white"/>
<path d="M143.433 35.8844C141.342 34.5932 140.307 30.025 141.68 28.1479C142.445 27.1024 151.825 23.868 165.304 20.0024C200.515 9.9045 235.407 4.11668 279.463 1.06595C292.047 0.194552 328.551 -0.106439 343.255 0.539951C376.669 2.00878 405.994 5.07652 437.808 10.4312C469.799 15.8156 505.501 23.4339 514.773 26.8543C518.763 28.3261 519.796 30.8875 517.751 34.2412C515.883 37.3038 515.713 37.2861 487.734 31.1052C434.001 19.2347 389.785 13.1018 347.289 11.6249C329.049 10.9909 284.295 11.3268 272.908 12.1831C234.579 15.0654 194.018 22.4016 159.948 32.6142C148.29 36.1088 144.887 36.7826 143.433 35.8844Z" fill="#FFD700"/>
<path d="M213.088 140.911C212.79 140.148 206.696 123.639 199.545 104.224L186.542 68.9243L188.626 68.5834C191.331 68.1409 197.964 68.0806 199.962 68.4803C201.8 68.8478 201.084 67.1463 211.392 95.6512C215.203 106.191 218.959 116.232 219.738 117.966C221.294 121.426 222.414 121.98 223.306 119.731C223.608 118.968 228.111 107.111 233.313 93.382L242.769 68.4199L248.121 68.2769C256.952 68.0409 256.196 67.4127 260.173 78.2834C274.901 118.542 276.094 121.622 276.96 121.622C277.831 121.622 280.013 116.275 289.102 91.8691C293.388 80.3588 297.094 70.4637 297.338 69.8799C297.636 69.1661 298.415 68.7137 299.716 68.4987C302.695 68.0065 310.885 68.1093 311.215 68.6429C311.528 69.1498 304.701 88.4681 292.537 121.496L285.062 141.793H280.7C278.3 141.793 274.622 141.648 272.526 141.471L268.715 141.149L262.284 123.947C255.656 106.22 250.285 92.5274 249.748 91.9902C249.579 91.8219 249.204 91.9216 248.914 92.2115C248.205 92.9207 243.838 103.796 236.193 123.891C232.711 133.044 229.708 140.93 229.52 141.415C229.216 142.202 228.343 142.297 221.404 142.297H213.629L213.088 140.911Z" fill="#FFD700"/>
<path d="M138.069 142.059C123.971 138.841 115.33 133.148 109 120.5C109 120.5 107.753 117.257 107.18 115.555C105.812 111.487 105.937 108.792 106 104.5C106.063 100.208 107 95.5 107.503 93.5767C108.005 91.6533 109.5 89 109.5 89C114.495 78.8993 122.714 72.4824 133.221 69.1724C138.64 67.4654 147.581 67.21 153.156 68.6032C164.103 71.3388 173.274 78.4896 177.621 87.6777C179.322 91.2735 180.664 97.7417 181.131 104.605L181.493 109.91L152.715 110.096C131.612 110.231 123.779 110.438 123.346 110.872C122.895 111.323 122.968 112.052 123.655 113.964C125.766 119.835 130.656 124.573 137.336 127.221C139.955 128.259 141.119 128.389 147.845 128.387C156.535 128.384 158.291 127.94 163.872 124.335C165.753 123.12 167.495 122.126 167.743 122.126C168.305 122.126 175.833 130.542 175.833 131.171C175.833 132.191 170.77 135.917 166.504 138.036C164.008 139.276 160.15 140.75 157.931 141.311C152.514 142.682 142.455 143.061 138.069 142.059ZM164.865 99.1632C168.293 97.8346 160.982 86.0193 154.774 82.853C151.509 81.1883 145.45 80.4932 140.407 81.2048C133.256 82.2137 129.22 84.9454 125.287 91.438C123.281 94.7489 122.438 97.6771 123.256 98.4944C123.53 98.7686 124.863 99.1963 126.218 99.4448C128.975 99.9502 163.483 99.6987 164.865 99.1632Z" fill="#FFD700"/>
<path d="M2.34692 141.667C2.33982 141.32 2.11908 120.351 1.8563 95.0691C1.59351 69.7868 1.23864 48.2267 1.06768 47.1576L0.756863 45.2138L8.4922 45.3972C12.7466 45.498 16.244 45.6135 16.2641 45.6539C16.2843 45.6943 28.3114 60.4775 42.9911 78.5056L69.6815 111.284L69.9938 107.502C70.1656 105.422 70.3358 90.5013 70.372 74.3453L70.4379 44.9708H79.0107H87.5835V93.6483V142.326L80.6744 142.186L73.7653 142.045L47.086 109.267C32.4124 91.2388 20.2381 76.4242 20.032 76.3457C19.2642 76.0531 19.0071 85.3304 19.0041 113.427L19.0011 142.297H10.6804C4.36694 142.297 2.35666 142.145 2.34692 141.667Z" fill="#FFD700"/>
</svg>
